<?xml version="1.0" encoding="utf-8"?>
<!-- Generator: Adobe Illustrator 18.0.0, SVG Export Plug-In . SVG Version: 6.00 Build 0)  -->
<!DOCTYPE svg PUBLIC "-//W3C//DTD SVG 1.1//EN" "http://www.w3.org/Graphics/SVG/1.1/DTD/svg11.dtd">
<svg version="1.1" id="Layer_1" xmlns="http://www.w3.org/2000/svg" xmlns:xlink="http://www.w3.org/1999/xlink" x="0px" y="0px"
	 width="245.3px" height="208.2px" viewBox="0 0 245.3 208.2" enable-background="new 0 0 245.3 208.2" xml:space="preserve">
<g>
	<path fill="#CDCEAE" d="M150.1,136.2c0.6,6.1-2.8,6.8-7.3,6.9c-4.5,0-10.5,0.4-8.3-3.8c1.6-3,6-4.7,8.4-5.4
		c5.4-22.5,0.2-39.7,0.2-39.7c-0.9-4,5-10.3,9.3,1.9C156.4,107.6,151,129.4,150.1,136.2z"/>
	<path fill="#CDCEAE" d="M89.2,134.8c0.6,6.1-2.8,6.8-7.3,6.9c-4.5,0-10.5,0.4-8.3-3.8c1.6-3,6-4.7,8.4-5.4
		c5.4-22.5,0.2-39.7,0.2-39.7c-0.9-4,5-10.3,9.3,1.9C95.5,106.3,90.1,128,89.2,134.8z"/>
	<path fill="#DBDDC0" d="M168.8,63.8c0,0-2.4-32.4,20.6-32.2c23,0.2,7,18.2,12,30.7s25,6.5,25,0s6.5-8.5,7-4.5s1,20.5-19.5,19.5
		s-22.5-13-22.5-14.5s4.3-23.2-4.3-22.6c-8.7,0.6-8.7,26.1-8.7,26.1L168.8,63.8z"/>
	<path fill="#DBDDC0" d="M186.4,83.5c-2.8,14.9-16.9,35.7-65.6,34.2c-68.5-2-53-53.5-53-53.5c0.1-0.2,0.2-0.4,0.2-0.5
		c9.3-21.2,47-5.5,76.8-9c30-3.5,37.5,8,41,15.5C186.9,72.5,187.6,77.5,186.4,83.5z"/>
	<path fill="#E7EACE" d="M186.4,83.5c-4.5,14.3-20.1,31.5-64.6,30.2C64.2,112.1,66,75.3,68,63.7c9.3-21.2,47-5.5,76.8-9
		c30-3.5,37.5,8,41,15.5C186.9,72.5,187.6,77.5,186.4,83.5z"/>
	<path fill="#B9BA93" d="M107.5,33.9c0,0-5.5-0.9-10.6-1.8c0,0-0.2,0-0.3,0h0c-3.3,0-6.7-1.6-10-1.5C90.7,19.3,95,9.2,102.4,0
		c0,0.9,0.2,1.8,0.2,2.7v0c0,0.1,0,0.2,0,0.3v0c0,0-0.4,0-0.4,0c0,10.9,3.2,20.8,5.2,30.4c0,0,0.2,0,0.2,0c0,0,0,0,0,0v0
		C107.6,33.7,107.5,33.8,107.5,33.9z"/>
	<path fill="#ECEFD0" d="M101.9,3C101.8,3,101.8,3,101.9,3c0-0.1,0-0.2,0-0.3C101.8,2.8,101.8,2.9,101.9,3z"/>
	<path fill="#ECEFD0" d="M107,33.5c-0.1,0-0.1,0-0.2,0c-2.1-0.3-5.2-0.9-8.2-1.3c-0.6,0.1-1.2,0.1-1.9,0c0,0-0.1,0-0.2,0
		c-2.6-0.3-5.3-1.6-8-1.5c3.6-10.1,7.2-19.2,13.2-27.6C101.9,14,105.2,23.9,107,33.5z"/>
	<path fill="#B9BA93" d="M63.8,36.2c-1,0-2,0.2-3,0.5c-0.1,0-0.3,0.1-0.4,0.1c-1.6,0.5-3.2,1.1-4.8,1.3c-0.1,0-0.2,0-0.3,0
		c0,0,0,0,0,0c-0.4,0-0.8-0.1-1.2-0.1c-0.5,0.1-1,0.1-1.5,0.1c0,0,0,0,0,0c-0.1,0-0.2,0.2-0.4,0.2c-0.4,0.1-0.9,0.2-1.3,0.3
		c-0.2,0-0.3,0.1-0.4,0.1c-1.4,0.3-2.8,0.6-3.9,0.8c-0.2,0-0.4,0.1-0.6,0.1c0,0,0,0,0,0c-0.2,0-0.4,0.1-0.5,0.1
		c-0.2,0-0.1,0.1-0.3,0.1c-0.6,0.1-0.5,0.2-0.5,0.2v0c1-3.9,0.9-7.9,1.6-11.9c0-0.1-0.2-0.1-0.2-0.2c0.6-3.5,1.1-7.1,1.4-10.7
		c0-0.1,0.4-0.2,0.4-0.2c0.2-2.5,0.8-5,0.8-7.6V9.2c0-0.8-0.6-1.7-0.7-2.5C55.6,15.5,59.5,25.3,63.8,36.2z"/>
	<path fill="#ECEFD0" d="M60.9,36.8c-0.2,0-0.3,0-0.5,0c-1.6,0.1-3.2,0.7-4.8,1.2c-0.1,0-0.2,0.1-0.3,0.1c0,0,0,0,0,0
		c-0.9,0-1.8,0-2.7,0c0,0,0,0,0,0c-0.1,0-0.2,0.2-0.4,0.2c-0.4,0.1-0.9,0.2-1.3,0.3c-0.2,0-0.3,0.1-0.4,0.1
		c-1.4,0.3-2.8,0.6-3.9,0.8c-0.2,0-0.4,0.1-0.6,0.1c0,0,0,0,0,0c-0.2,0-0.4,0.1-0.5,0.1c-0.2,0-0.5,0.1-0.7,0.1
		c-0.4,0.1-0.7,0.2-0.9,0.2c-0.1,0-0.1,0-0.1,0c0.6-3.9,1.4-7.9,2.1-11.9c0-0.1,0-0.1,0-0.2c0.6-3.5,1.2-7.1,1.5-10.7
		c0-0.1,0-0.2,0-0.2c0.2-2.5,0.4-5,0.4-7.6C53.6,17.8,57.2,26.8,60.9,36.8C60.9,36.7,60.9,36.8,60.9,36.8z"/>
	<path fill="#ECEFD0" d="M80.6,69.5c-2.7,0.5-5.3,0.7-7.9,0.8c-18.5,0.6-34.1-8.6-36.6-22.5C33.3,31.9,48.7,15.9,70.4,12
		c3.7-0.7,7.4-0.9,10.9-0.8c17.1,0.5,31.2,9.4,33.6,22.5C117.7,49.6,102.4,65.6,80.6,69.5z"/>
	<path fill="#F6F9E4" d="M80.6,69.5c-2.7,0.5-5.3,0.7-7.9,0.8c-17.2-0.5-31.3-9.4-33.6-22.5C36.3,31.9,51.7,15.9,73.4,12
		c2.7-0.5,5.3-0.8,7.9-0.8c17.1,0.5,31.2,9.4,33.6,22.5C117.7,49.6,102.4,65.6,80.6,69.5z"/>
	<ellipse transform="matrix(0.9897 0.143 -0.143 0.9897 4.4365 -8.5118)" fill="#2C2F30" cx="61.4" cy="26.6" rx="3.1" ry="5"/>
	<ellipse transform="matrix(0.9733 -0.2294 0.2294 0.9733 -3.4886 21.1962)" fill="#2C2F30" cx="89.4" cy="25.6" rx="3.1" ry="5"/>
	<path fill="#CBCEAB" d="M75.5,40.7c0,0,1.3,2.2,0,8.5"/>
	<path fill="#CBCEAB" d="M75.1,49.8c-0.7,0.4-4.1,0.9-8.5-0.1"/>
	<path fill="#CBCEAB" d="M84.1,49.8c0,0-2.2,1.3-8.5-0.1"/>
	<path fill="#2C2D23" d="M84.2,32.9c0.7,2.6-2.5,7.7-6.9,8.8c-4.4,1.1-8.5-2.2-9.2-4.8c-0.7-2.6,2.4-5.7,6.8-6.8
		S83.5,30.3,84.2,32.9z"/>
	<path fill="#CDCEAE" d="M98.4,138.3c0.6,6.1-2.8,6.8-7.3,6.9c-4.5,0-10.5,0.4-8.3-3.8c1.6-3,6-4.7,8.4-5.4
		c5.4-22.5,0.2-39.7,0.2-39.7c-0.9-4,5-10.3,9.3,1.9C104.8,109.7,99.3,131.5,98.4,138.3z"/>
	<path fill="#CDCEAE" d="M159.3,139.6c0.6,6.1-2.8,6.8-7.3,6.9c-4.5,0-10.5,0.4-8.3-3.8c1.6-3,6-4.7,8.4-5.4
		c5.4-22.5,0.2-39.7,0.2-39.7c-0.9-4,5-10.3,9.3,1.9C165.7,111.1,160.2,132.8,159.3,139.6z"/>
	<g>
		<path fill="#8E8E73" d="M91.4,35.6c0,0,11.8-6.6,18.2,0.5C109.6,36.1,103,30,91.4,35.6z"/>
		<path fill="#8E8E73" d="M91.4,36.9c0,0,13.5-4.4,19.1,3.7C110.4,40.7,104.4,33.5,91.4,36.9z"/>
		<path fill="#8E8E73" d="M91.6,37.8c0,0,11.7-3.3,14.8,5.1C106.4,42.9,102.8,35.4,91.6,37.8z"/>
	</g>
	<g>
		<path fill="#8E8E73" d="M62.4,36.6c0,0-11.8-6.6-18.2,0.5C44.3,37.1,50.9,31,62.4,36.6z"/>
		<path fill="#8E8E73" d="M62.4,37.9c0,0-13.5-4.4-19.1,3.7C43.4,41.7,49.4,34.5,62.4,37.9z"/>
		<path fill="#8E8E73" d="M62.2,38.8c0,0-11.7-3.3-14.8,5.1C47.5,43.9,51.1,36.4,62.2,38.8z"/>
	</g>
</g>
<g>
	<g>
		<path fill="#2C2F30" d="M9.1,186.8c0,5.6,0.1,6.3,3.5,6.7l1.4,0.2c0.3,0.3,0.2,1.2-0.1,1.3c-3.1-0.1-4.8-0.2-7-0.2
			c-2.3,0-4.2,0.1-6.5,0.2c-0.3-0.2-0.4-1-0.1-1.3l1.1-0.2c3.1-0.4,3.2-1.1,3.2-6.7V167c0-4.6-0.1-5.5-2.5-5.7L0.3,161
			c-0.4-0.3-0.3-1.1,0.1-1.3c2.8-0.4,6.2-0.4,10.6-0.4c4.5,0,7.8,0.6,10.3,2.1c2.5,1.6,4.3,4.3,4.3,8c0,4.9-3.1,7.4-5.4,8.5
			c-2.4,1.1-5.2,1.6-7.4,1.6c-0.4-0.2-0.4-1-0.1-1.1c5.8-1.1,7.9-4.3,7.9-9c0-5.2-3.1-8.6-8.6-8.6c-2.8,0-2.9,0.2-2.9,1.9V186.8z"/>
		<path fill="#2C2F30" d="M28.4,179.4c0-2.1,0-2.4-1.4-3.3l-0.5-0.3c-0.2-0.2-0.2-0.8,0.1-1c1.2-0.4,4.1-1.8,5.4-2.6
			c0.3,0.1,0.4,0.2,0.4,0.4v3.1c0,0.3,0.1,0.4,0.2,0.5c1.9-1.6,3.9-3.2,5.9-3.2c1.3,0,2.4,0.9,2.4,2.1c0,1.8-1.4,2.5-2.3,2.5
			c-0.5,0-0.8-0.2-1.2-0.4c-0.8-0.5-1.6-0.9-2.4-0.9c-0.9,0-1.5,0.5-1.9,1.1c-0.5,0.8-0.7,2.3-0.7,4.1v7.3c0,3.9,0.1,4.5,2.1,4.7
			l1.9,0.2c0.4,0.3,0.3,1.2-0.1,1.3c-2.5-0.1-4.1-0.2-6-0.2c-1.9,0-3.5,0.1-4.9,0.2c-0.4-0.2-0.5-1.1-0.1-1.3l1-0.2
			c2-0.3,2-0.8,2-4.7V179.4z"/>
		<path fill="#2C2F30" d="M46.2,181.1c-1.4,0-1.4,0.1-1.4,1.4c0,5.4,3.2,10,8.9,10c1.8,0,3.3-0.5,4.9-2.6c0.5-0.2,0.9,0.2,1,0.6
			c-1.8,3.6-5.6,5-8.4,5c-3.5,0-6.2-1.5-7.8-3.5c-1.6-2.1-2.3-4.6-2.3-7c0-6.6,4.3-12.1,10.8-12.1c4.6,0,7.6,3.2,7.6,6.4
			c0,0.8-0.1,1.2-0.2,1.4c-0.2,0.3-0.9,0.4-3.2,0.4H46.2z M49.5,179.5c4,0,5.1-0.2,5.6-0.5c0.2-0.1,0.3-0.3,0.3-1
			c0-1.5-1-3.4-4.1-3.4c-3.2,0-5.9,2.9-6,4.7c0,0.1,0,0.3,0.4,0.3H49.5z"/>
		<path fill="#2C2F30" d="M68.9,175.9c-0.9,0-1,0.2-1,1.3v10c0,3.1,0.4,6,3.9,6c0.5,0,1-0.1,1.4-0.3c0.5-0.2,1.2-0.8,1.3-0.8
			c0.4,0,0.6,0.6,0.5,0.9c-1,1.1-2.9,2.5-5.6,2.5c-4.6,0-5.6-2.6-5.6-5.8v-12.3c0-1.4-0.1-1.6-1.1-1.6h-1.5
			c-0.3-0.2-0.4-0.8-0.2-1.1c1.6-0.5,2.9-1.2,3.4-1.7c0.7-0.6,1.7-2.1,2.3-3.2c0.3-0.1,0.9-0.1,1.1,0.3v2.4c0,1,0.1,1,1,1h6
			c0.6,0.5,0.5,1.9,0.1,2.3H68.9z"/>
		<path fill="#2C2F30" d="M84.1,175.9c-0.9,0-1,0.2-1,1.3v10c0,3.1,0.4,6,3.9,6c0.5,0,1-0.1,1.4-0.3c0.5-0.2,1.2-0.8,1.3-0.8
			c0.4,0,0.6,0.6,0.5,0.9c-1,1.1-2.9,2.5-5.6,2.5c-4.6,0-5.6-2.6-5.6-5.8v-12.3c0-1.4-0.1-1.6-1.1-1.6h-1.5
			c-0.3-0.2-0.4-0.8-0.2-1.1c1.6-0.5,2.9-1.2,3.4-1.7c0.7-0.6,1.7-2.1,2.3-3.2c0.3-0.1,0.9-0.1,1.1,0.3v2.4c0,1,0.1,1,1,1h6
			c0.6,0.5,0.5,1.9,0.1,2.3H84.1z"/>
		<path fill="#2C2F30" d="M93.4,205.9c0-1.4,1-2.1,2.1-2.1h1c0.9,0,1.4-0.4,1.8-1c1.6-2.4,2.6-4.7,3.1-6c0.2-0.4,0.5-1.6,0.5-2.3
			c0-1.1-0.2-1.7-0.9-3.7l-4.2-11.5c-0.9-2.5-1.3-3.8-3.2-4.2l-1.3-0.3c-0.3-0.3-0.3-1.2,0.2-1.3c1.7,0.1,3.3,0.2,5.1,0.2
			c1.4,0,2.9-0.1,4.7-0.2c0.4,0.2,0.5,1.1,0.1,1.3l-1.3,0.3c-0.8,0.2-1.2,0.3-1.2,0.7c0,0.6,1.2,4.1,1.6,5l1.7,4.9
			c0.3,0.9,1.3,3.7,1.6,3.8c0.2-0.1,1-1.8,2-4l1.8-4.2c1.2-2.8,1.9-4.8,1.9-5.4c0-0.4-0.3-0.8-1.3-0.9l-1.7-0.3
			c-0.4-0.3-0.3-1.2,0.1-1.3c1.7,0.1,3.3,0.2,4.7,0.2c1.3,0,2.6-0.1,4.1-0.2c0.4,0.2,0.5,1,0.1,1.3l-0.9,0.2
			c-1.8,0.3-2.7,1.9-4.6,5.7l-3,6.2c-1.8,3.6-6.2,12.9-8.8,18.8c-0.9,2-2.2,2.5-3.4,2.5C94.2,208.2,93.4,207.2,93.4,205.9z"/>
	</g>
	<g>
		<path fill="#2C2F30" d="M124.7,167.5c0-5.6-0.1-6.5-3.2-6.8l-1.3-0.1c-0.3-0.2-0.2-1.2,0.1-1.3c2.6,0.1,4.3,0.2,6.8,0.2
			c2.1,0,3.9-0.1,6.2-0.2c0.3,0.2,0.4,1.1,0.1,1.3l-1,0.1c-3.1,0.3-3.2,1.1-3.2,6.8v6.2c0,1,0.1,2,0.7,2c0.5,0,1.1-0.3,1.5-0.6
			c0.8-0.6,2.1-2,2.7-2.6l5.8-5.7c1-1,3.6-3.7,4.2-4.5c0.3-0.4,0.4-0.6,0.4-0.9c0-0.2-0.2-0.4-0.9-0.5l-1.4-0.3
			c-0.4-0.4-0.3-1.1,0.1-1.3c1.9,0.1,4,0.2,5.9,0.2s3.7-0.1,5.3-0.2c0.4,0.3,0.4,1,0.1,1.3c-1.4,0.1-3.5,0.6-5,1.5
			c-1.5,0.9-4.5,3.4-7.5,6.2l-4.8,4.6c-0.8,0.8-1.2,1.2-1.2,1.7c0,0.4,0.3,0.8,1,1.7c5.1,5.8,9.2,10.7,13.4,15.1
			c1.3,1.3,2.5,2,4.3,2.2l1.4,0.2c0.4,0.3,0.3,1.2-0.1,1.3c-1.4-0.1-3.5-0.2-6-0.2c-2.2,0-4.1,0.1-6.5,0.2c-0.4-0.1-0.5-1-0.2-1.3
			l1.2-0.2c0.8-0.1,1.3-0.3,1.3-0.5c0-0.3-0.4-0.8-0.8-1.2c-1-1.3-2.4-2.7-4.5-5l-4.3-4.8c-3.1-3.4-3.9-4.5-5.2-4.5
			c-0.8,0-0.9,0.7-0.9,2.6v6.9c0,5.6,0.1,6.4,3.1,6.7l1.4,0.2c0.3,0.2,0.2,1.2-0.1,1.3c-2.6-0.1-4.5-0.2-6.5-0.2
			c-2.2,0-4,0.1-6.2,0.2c-0.3-0.2-0.4-1-0.1-1.3l1.1-0.2c2.8-0.4,2.9-1.1,2.9-6.7V167.5z"/>
		<path fill="#2C2F30" d="M160.5,179.4c0-2.1,0-2.4-1.4-3.3l-0.5-0.3c-0.2-0.2-0.2-0.8,0.1-1c1.2-0.4,4.3-1.8,5.5-2.6
			c0.3,0,0.5,0.1,0.5,0.3c-0.1,1.9-0.2,4.5-0.2,6.7v9.7c0,3.9,0.1,4.4,2,4.7l1.1,0.2c0.4,0.3,0.3,1.2-0.1,1.3
			c-1.6-0.1-3.2-0.2-5-0.2c-1.9,0-3.5,0.1-5,0.2c-0.4-0.2-0.5-1.1-0.1-1.3l1.1-0.2c2-0.3,2-0.8,2-4.7V179.4z M165,164.1
			c0,1.9-1.3,2.8-2.8,2.8c-1.7,0-2.7-1.2-2.7-2.7c0-1.8,1.3-2.9,2.9-2.9C163.9,161.3,165,162.6,165,164.1z"/>
		<path fill="#2C2F30" d="M176.2,175.9c-0.9,0-1,0.2-1,1.3v10c0,3.1,0.4,6,3.9,6c0.5,0,1-0.1,1.4-0.3c0.5-0.2,1.2-0.8,1.3-0.8
			c0.4,0,0.6,0.6,0.5,0.9c-1,1.1-2.9,2.5-5.6,2.5c-4.6,0-5.6-2.6-5.6-5.8v-12.3c0-1.4-0.1-1.6-1.1-1.6h-1.5
			c-0.3-0.2-0.4-0.8-0.2-1.1c1.6-0.5,2.9-1.2,3.4-1.7c0.7-0.6,1.7-2.1,2.3-3.2c0.3-0.1,0.9-0.1,1.1,0.3v2.4c0,1,0.1,1,1,1h6
			c0.6,0.5,0.5,1.9,0.1,2.3H176.2z"/>
		<path fill="#2C2F30" d="M191.5,175.9c-0.9,0-1,0.2-1,1.3v10c0,3.1,0.4,6,3.9,6c0.5,0,1-0.1,1.4-0.3c0.5-0.2,1.2-0.8,1.3-0.8
			c0.4,0,0.6,0.6,0.5,0.9c-1,1.1-2.9,2.5-5.6,2.5c-4.6,0-5.6-2.6-5.6-5.8v-12.3c0-1.4-0.1-1.6-1.1-1.6h-1.5
			c-0.3-0.2-0.4-0.8-0.2-1.1c1.6-0.5,2.9-1.2,3.4-1.7c0.7-0.6,1.7-2.1,2.3-3.2c0.3-0.1,0.9-0.1,1.1,0.3v2.4c0,1,0.1,1,1,1h6
			c0.6,0.5,0.5,1.9,0.1,2.3H191.5z"/>
		<path fill="#2C2F30" d="M202.3,179.4c0-2.1,0-2.4-1.4-3.3l-0.5-0.3c-0.2-0.2-0.2-0.8,0.1-1c1.2-0.4,4.3-1.8,5.5-2.6
			c0.3,0,0.5,0.1,0.5,0.3c-0.1,1.9-0.2,4.5-0.2,6.7v9.7c0,3.9,0.1,4.4,2,4.7l1.1,0.2c0.4,0.3,0.3,1.2-0.1,1.3
			c-1.6-0.1-3.2-0.2-5-0.2c-1.9,0-3.5,0.1-5,0.2c-0.4-0.2-0.5-1.1-0.1-1.3l1.1-0.2c2-0.3,2-0.8,2-4.7V179.4z M206.7,164.1
			c0,1.9-1.3,2.8-2.8,2.8c-1.7,0-2.7-1.2-2.7-2.7c0-1.8,1.3-2.9,2.9-2.9C205.7,161.3,206.7,162.6,206.7,164.1z"/>
		<path fill="#2C2F30" d="M215.3,181.1c-1.4,0-1.4,0.1-1.4,1.4c0,5.4,3.2,10,8.9,10c1.8,0,3.3-0.5,4.9-2.6c0.5-0.2,0.9,0.2,1,0.6
			c-1.8,3.6-5.6,5-8.4,5c-3.5,0-6.2-1.5-7.8-3.5c-1.6-2.1-2.3-4.6-2.3-7c0-6.6,4.3-12.1,10.8-12.1c4.6,0,7.6,3.2,7.6,6.4
			c0,0.8-0.1,1.2-0.2,1.4c-0.2,0.3-0.9,0.4-3.2,0.4H215.3z M218.6,179.5c4,0,5.1-0.2,5.6-0.5c0.2-0.1,0.3-0.3,0.3-1
			c0-1.5-1-3.4-4.1-3.4c-3.2,0-5.9,2.9-6,4.7c0,0.1,0,0.3,0.4,0.3H218.6z"/>
		<path fill="#2C2F30" d="M244.3,173.9c0.5,1.2,0.9,2.9,0.9,4.3c-0.2,0.4-1,0.5-1.3,0.2c-0.9-2.4-2.5-3.9-4.7-3.9
			c-2.1,0-3.4,1.3-3.4,3.3c0,2.2,2.3,3.4,4.1,4.5c2.8,1.6,5.5,3.4,5.5,7.2c0,4.1-3.8,6.1-7.7,6.1c-2.5,0-4.4-0.5-5.7-1.6
			c-0.4-1-0.8-3.6-0.6-5.4c0.3-0.3,1-0.4,1.2-0.1c0.9,2.9,2.6,5.5,5.7,5.5c1.9,0,3.6-1.1,3.6-3.4c0-2.5-2.1-3.8-4.1-4.9
			c-3.1-1.8-5.3-3.6-5.3-6.6c0-3.9,3.2-6.1,7.3-6.1C241.8,172.9,243.8,173.5,244.3,173.9z"/>
	</g>
</g>
</svg>
